<mxfile host="app.diagrams.net" modified="2021-09-01T11:41:49.758Z" agent="5.0 (Macintosh; Intel Mac OS X 10_15_7) AppleWebKit/537.36 (KHTML, like Gecko) Chrome/92.0.4515.159 Safari/537.36" etag="gwEX6j_SQAN0VrCis1Hz" version="14.9.8" type="github" pages="2">
  <diagram name="Page-1" id="kPh3VP6MwOBtwfID237a">
    <mxGraphModel dx="1426" dy="737" grid="1" gridSize="10" guides="1" tooltips="1" connect="1" arrows="1" fold="1" page="1" pageScale="1" pageWidth="827" pageHeight="1169" math="0" shadow="0">
      <root>
        <mxCell id="WIyWlLk6GJQsqaUBKTNV-0" />
        <mxCell id="WIyWlLk6GJQsqaUBKTNV-1" parent="WIyWlLk6GJQsqaUBKTNV-0" />
        <mxCell id="su2sXkNSjJdd7SwaWEnZ-56" value="" style="rounded=0;whiteSpace=wrap;html=1;shadow=0;fillColor=#fff2cc;strokeColor=#d6b656;" parent="WIyWlLk6GJQsqaUBKTNV-1" vertex="1">
          <mxGeometry x="120" y="280" width="200" height="210" as="geometry" />
        </mxCell>
        <mxCell id="su2sXkNSjJdd7SwaWEnZ-55" value="" style="whiteSpace=wrap;html=1;aspect=fixed;shadow=0;fillColor=#fff2cc;strokeColor=#d6b656;" parent="WIyWlLk6GJQsqaUBKTNV-1" vertex="1">
          <mxGeometry x="440" y="595" width="180" height="180" as="geometry" />
        </mxCell>
        <mxCell id="su2sXkNSjJdd7SwaWEnZ-5" value="草稿" style="whiteSpace=wrap;html=1;fontSize=12;glass=0;strokeWidth=1;shadow=0;fillColor=#f9f7ed;strokeColor=#36393d;" parent="WIyWlLk6GJQsqaUBKTNV-1" vertex="1">
          <mxGeometry x="160" y="310" width="120" height="40" as="geometry" />
        </mxCell>
        <mxCell id="su2sXkNSjJdd7SwaWEnZ-4" value="" style="edgeStyle=orthogonalEdgeStyle;orthogonalLoop=1;jettySize=auto;html=1;" parent="WIyWlLk6GJQsqaUBKTNV-1" source="WIyWlLk6GJQsqaUBKTNV-3" target="WIyWlLk6GJQsqaUBKTNV-11" edge="1">
          <mxGeometry relative="1" as="geometry" />
        </mxCell>
        <mxCell id="WIyWlLk6GJQsqaUBKTNV-3" value="新建配置" style="whiteSpace=wrap;html=1;fontSize=12;glass=0;strokeWidth=1;shadow=0;fillColor=#dae8fc;strokeColor=#6c8ebf;" parent="WIyWlLk6GJQsqaUBKTNV-1" vertex="1">
          <mxGeometry x="160" y="100" width="120" height="40" as="geometry" />
        </mxCell>
        <mxCell id="su2sXkNSjJdd7SwaWEnZ-6" value="" style="edgeStyle=orthogonalEdgeStyle;orthogonalLoop=1;jettySize=auto;html=1;" parent="WIyWlLk6GJQsqaUBKTNV-1" source="WIyWlLk6GJQsqaUBKTNV-11" target="su2sXkNSjJdd7SwaWEnZ-5" edge="1">
          <mxGeometry relative="1" as="geometry" />
        </mxCell>
        <mxCell id="WIyWlLk6GJQsqaUBKTNV-11" value="草稿" style="whiteSpace=wrap;html=1;fontSize=12;glass=0;strokeWidth=1;shadow=0;fillColor=#dae8fc;strokeColor=#6c8ebf;" parent="WIyWlLk6GJQsqaUBKTNV-1" vertex="1">
          <mxGeometry x="160" y="190" width="120" height="40" as="geometry" />
        </mxCell>
        <mxCell id="su2sXkNSjJdd7SwaWEnZ-1" value="保存草稿" style="text;html=1;align=center;verticalAlign=middle;resizable=0;points=[];autosize=1;strokeColor=none;" parent="WIyWlLk6GJQsqaUBKTNV-1" vertex="1">
          <mxGeometry x="225" y="150" width="60" height="20" as="geometry" />
        </mxCell>
        <mxCell id="su2sXkNSjJdd7SwaWEnZ-10" value="" style="edgeStyle=orthogonalEdgeStyle;orthogonalLoop=1;jettySize=auto;html=1;exitX=0.5;exitY=1;exitDx=0;exitDy=0;rounded=1;dashed=1;" parent="WIyWlLk6GJQsqaUBKTNV-1" source="su2sXkNSjJdd7SwaWEnZ-5" target="su2sXkNSjJdd7SwaWEnZ-9" edge="1">
          <mxGeometry relative="1" as="geometry">
            <mxPoint x="220" y="390" as="sourcePoint" />
          </mxGeometry>
        </mxCell>
        <mxCell id="su2sXkNSjJdd7SwaWEnZ-12" value="" style="edgeStyle=orthogonalEdgeStyle;orthogonalLoop=1;jettySize=auto;html=1;" parent="WIyWlLk6GJQsqaUBKTNV-1" source="su2sXkNSjJdd7SwaWEnZ-9" target="su2sXkNSjJdd7SwaWEnZ-11" edge="1">
          <mxGeometry relative="1" as="geometry" />
        </mxCell>
        <mxCell id="su2sXkNSjJdd7SwaWEnZ-9" value="待上线" style="whiteSpace=wrap;html=1;fontSize=12;glass=0;strokeWidth=1;shadow=0;fillColor=#f9f7ed;strokeColor=#36393d;" parent="WIyWlLk6GJQsqaUBKTNV-1" vertex="1">
          <mxGeometry x="160" y="400" width="120" height="40" as="geometry" />
        </mxCell>
        <mxCell id="su2sXkNSjJdd7SwaWEnZ-17" value="" style="edgeStyle=orthogonalEdgeStyle;rounded=1;orthogonalLoop=1;jettySize=auto;html=1;shadow=0;" parent="WIyWlLk6GJQsqaUBKTNV-1" source="su2sXkNSjJdd7SwaWEnZ-11" target="su2sXkNSjJdd7SwaWEnZ-16" edge="1">
          <mxGeometry relative="1" as="geometry" />
        </mxCell>
        <mxCell id="su2sXkNSjJdd7SwaWEnZ-36" value="" style="edgeStyle=orthogonalEdgeStyle;rounded=1;orthogonalLoop=1;jettySize=auto;html=1;shadow=0;entryX=0;entryY=0.5;entryDx=0;entryDy=0;" parent="WIyWlLk6GJQsqaUBKTNV-1" source="su2sXkNSjJdd7SwaWEnZ-11" target="su2sXkNSjJdd7SwaWEnZ-30" edge="1">
          <mxGeometry relative="1" as="geometry">
            <mxPoint x="20" y="540" as="targetPoint" />
            <Array as="points">
              <mxPoint x="110" y="540" />
              <mxPoint x="110" y="835" />
            </Array>
          </mxGeometry>
        </mxCell>
        <mxCell id="su2sXkNSjJdd7SwaWEnZ-11" value="待投放" style="whiteSpace=wrap;html=1;fontSize=12;glass=0;strokeWidth=1;shadow=0;fillColor=#dae8fc;strokeColor=#6c8ebf;" parent="WIyWlLk6GJQsqaUBKTNV-1" vertex="1">
          <mxGeometry x="160" y="520" width="120" height="40" as="geometry" />
        </mxCell>
        <mxCell id="su2sXkNSjJdd7SwaWEnZ-14" value="版本流程" style="text;html=1;align=center;verticalAlign=middle;resizable=0;points=[];autosize=1;strokeColor=none;" parent="WIyWlLk6GJQsqaUBKTNV-1" vertex="1">
          <mxGeometry x="330" y="360" width="60" height="20" as="geometry" />
        </mxCell>
        <mxCell id="su2sXkNSjJdd7SwaWEnZ-15" value="当操作版本上线后，且当前配置为草稿状态时，&lt;br&gt;配置状态会自动更新为待投放" style="text;html=1;align=center;verticalAlign=middle;resizable=0;points=[];autosize=1;fillColor=none;" parent="WIyWlLk6GJQsqaUBKTNV-1" vertex="1">
          <mxGeometry x="330" y="450" width="270" height="30" as="geometry" />
        </mxCell>
        <mxCell id="su2sXkNSjJdd7SwaWEnZ-19" value="" style="edgeStyle=orthogonalEdgeStyle;rounded=1;orthogonalLoop=1;jettySize=auto;html=1;shadow=0;entryX=0;entryY=0.5;entryDx=0;entryDy=0;" parent="WIyWlLk6GJQsqaUBKTNV-1" source="su2sXkNSjJdd7SwaWEnZ-16" target="su2sXkNSjJdd7SwaWEnZ-50" edge="1">
          <mxGeometry relative="1" as="geometry">
            <mxPoint x="410" y="640" as="targetPoint" />
          </mxGeometry>
        </mxCell>
        <mxCell id="su2sXkNSjJdd7SwaWEnZ-29" value="" style="edgeStyle=orthogonalEdgeStyle;rounded=1;orthogonalLoop=1;jettySize=auto;html=1;shadow=0;" parent="WIyWlLk6GJQsqaUBKTNV-1" source="su2sXkNSjJdd7SwaWEnZ-16" target="su2sXkNSjJdd7SwaWEnZ-28" edge="1">
          <mxGeometry relative="1" as="geometry" />
        </mxCell>
        <mxCell id="zinLOxnvtQ0VyV_YqizE-1" style="edgeStyle=orthogonalEdgeStyle;rounded=0;orthogonalLoop=1;jettySize=auto;html=1;exitX=0.75;exitY=1;exitDx=0;exitDy=0;entryX=0.5;entryY=0;entryDx=0;entryDy=0;dashed=1;" parent="WIyWlLk6GJQsqaUBKTNV-1" source="su2sXkNSjJdd7SwaWEnZ-16" target="zinLOxnvtQ0VyV_YqizE-0" edge="1">
          <mxGeometry relative="1" as="geometry">
            <Array as="points">
              <mxPoint x="250" y="700" />
              <mxPoint x="400" y="700" />
            </Array>
          </mxGeometry>
        </mxCell>
        <mxCell id="su2sXkNSjJdd7SwaWEnZ-16" value="投放中" style="whiteSpace=wrap;html=1;fontSize=12;glass=0;strokeWidth=1;shadow=0;fillColor=#dae8fc;strokeColor=#6c8ebf;" parent="WIyWlLk6GJQsqaUBKTNV-1" vertex="1">
          <mxGeometry x="160" y="620" width="120" height="40" as="geometry" />
        </mxCell>
        <mxCell id="su2sXkNSjJdd7SwaWEnZ-40" value="" style="edgeStyle=orthogonalEdgeStyle;rounded=1;orthogonalLoop=1;jettySize=auto;html=1;shadow=0;entryX=1;entryY=0.75;entryDx=0;entryDy=0;" parent="WIyWlLk6GJQsqaUBKTNV-1" source="su2sXkNSjJdd7SwaWEnZ-25" target="su2sXkNSjJdd7SwaWEnZ-16" edge="1">
          <mxGeometry relative="1" as="geometry">
            <mxPoint x="474" y="825" as="targetPoint" />
            <Array as="points">
              <mxPoint x="420" y="730" />
              <mxPoint x="420" y="650" />
            </Array>
          </mxGeometry>
        </mxCell>
        <mxCell id="su2sXkNSjJdd7SwaWEnZ-25" value="待上线" style="whiteSpace=wrap;html=1;fontSize=12;glass=0;strokeWidth=1;shadow=0;fillColor=#f9f7ed;strokeColor=#36393d;" parent="WIyWlLk6GJQsqaUBKTNV-1" vertex="1">
          <mxGeometry x="470" y="710" width="120" height="40" as="geometry" />
        </mxCell>
        <mxCell id="su2sXkNSjJdd7SwaWEnZ-27" value="修复（创建版本草稿）" style="text;html=1;align=center;verticalAlign=middle;resizable=0;points=[];autosize=1;strokeColor=none;" parent="WIyWlLk6GJQsqaUBKTNV-1" vertex="1">
          <mxGeometry x="290" y="615" width="140" height="20" as="geometry" />
        </mxCell>
        <mxCell id="su2sXkNSjJdd7SwaWEnZ-31" value="" style="edgeStyle=orthogonalEdgeStyle;rounded=1;orthogonalLoop=1;jettySize=auto;html=1;shadow=0;" parent="WIyWlLk6GJQsqaUBKTNV-1" source="su2sXkNSjJdd7SwaWEnZ-28" target="su2sXkNSjJdd7SwaWEnZ-30" edge="1">
          <mxGeometry relative="1" as="geometry" />
        </mxCell>
        <mxCell id="su2sXkNSjJdd7SwaWEnZ-28" value="暂停中" style="whiteSpace=wrap;html=1;fontSize=12;glass=0;strokeWidth=1;shadow=0;fillColor=#dae8fc;strokeColor=#6c8ebf;" parent="WIyWlLk6GJQsqaUBKTNV-1" vertex="1">
          <mxGeometry x="160" y="715" width="120" height="40" as="geometry" />
        </mxCell>
        <mxCell id="su2sXkNSjJdd7SwaWEnZ-30" value="已下线" style="whiteSpace=wrap;html=1;fontSize=12;glass=0;strokeWidth=1;shadow=0;fillColor=#f8cecc;strokeColor=#b85450;" parent="WIyWlLk6GJQsqaUBKTNV-1" vertex="1">
          <mxGeometry x="160" y="815" width="120" height="40" as="geometry" />
        </mxCell>
        <mxCell id="su2sXkNSjJdd7SwaWEnZ-32" value="投放" style="text;html=1;align=center;verticalAlign=middle;resizable=0;points=[];autosize=1;strokeColor=none;shadow=0;" parent="WIyWlLk6GJQsqaUBKTNV-1" vertex="1">
          <mxGeometry x="220" y="575" width="40" height="20" as="geometry" />
        </mxCell>
        <mxCell id="su2sXkNSjJdd7SwaWEnZ-33" value="暂停" style="text;html=1;align=center;verticalAlign=middle;resizable=0;points=[];autosize=1;strokeColor=none;" parent="WIyWlLk6GJQsqaUBKTNV-1" vertex="1">
          <mxGeometry x="220" y="675" width="40" height="20" as="geometry" />
        </mxCell>
        <mxCell id="su2sXkNSjJdd7SwaWEnZ-34" value="下线" style="text;html=1;align=center;verticalAlign=middle;resizable=0;points=[];autosize=1;strokeColor=none;" parent="WIyWlLk6GJQsqaUBKTNV-1" vertex="1">
          <mxGeometry x="220" y="775" width="40" height="20" as="geometry" />
        </mxCell>
        <mxCell id="su2sXkNSjJdd7SwaWEnZ-37" value="下线" style="text;html=1;align=center;verticalAlign=middle;resizable=0;points=[];autosize=1;strokeColor=none;" parent="WIyWlLk6GJQsqaUBKTNV-1" vertex="1">
          <mxGeometry x="60" y="675" width="40" height="20" as="geometry" />
        </mxCell>
        <mxCell id="su2sXkNSjJdd7SwaWEnZ-38" value="上线版本" style="text;html=1;align=center;verticalAlign=middle;resizable=0;points=[];autosize=1;strokeColor=none;" parent="WIyWlLk6GJQsqaUBKTNV-1" vertex="1">
          <mxGeometry x="220" y="450" width="60" height="20" as="geometry" />
        </mxCell>
        <mxCell id="su2sXkNSjJdd7SwaWEnZ-41" value="上线版本（热更新）" style="text;html=1;align=center;verticalAlign=middle;resizable=0;points=[];autosize=1;strokeColor=none;" parent="WIyWlLk6GJQsqaUBKTNV-1" vertex="1">
          <mxGeometry x="290" y="660" width="120" height="20" as="geometry" />
        </mxCell>
        <mxCell id="su2sXkNSjJdd7SwaWEnZ-43" value="自动创建版本草稿" style="text;html=1;align=center;verticalAlign=middle;resizable=0;points=[];autosize=1;strokeColor=none;" parent="WIyWlLk6GJQsqaUBKTNV-1" vertex="1">
          <mxGeometry x="225" y="240" width="110" height="20" as="geometry" />
        </mxCell>
        <mxCell id="su2sXkNSjJdd7SwaWEnZ-44" value="..." style="text;html=1;align=center;verticalAlign=middle;resizable=0;points=[];autosize=1;strokeColor=none;" parent="WIyWlLk6GJQsqaUBKTNV-1" vertex="1">
          <mxGeometry x="225" y="360" width="30" height="20" as="geometry" />
        </mxCell>
        <mxCell id="su2sXkNSjJdd7SwaWEnZ-50" value="草稿" style="whiteSpace=wrap;html=1;fontSize=12;glass=0;strokeWidth=1;shadow=0;fillColor=#f9f7ed;strokeColor=#36393d;" parent="WIyWlLk6GJQsqaUBKTNV-1" vertex="1">
          <mxGeometry x="470" y="620" width="120" height="40" as="geometry" />
        </mxCell>
        <mxCell id="su2sXkNSjJdd7SwaWEnZ-51" value="" style="edgeStyle=orthogonalEdgeStyle;orthogonalLoop=1;jettySize=auto;html=1;exitX=0.5;exitY=1;exitDx=0;exitDy=0;rounded=1;dashed=1;" parent="WIyWlLk6GJQsqaUBKTNV-1" source="su2sXkNSjJdd7SwaWEnZ-50" edge="1">
          <mxGeometry relative="1" as="geometry">
            <mxPoint x="530" y="700" as="sourcePoint" />
            <mxPoint x="530" y="710" as="targetPoint" />
          </mxGeometry>
        </mxCell>
        <mxCell id="su2sXkNSjJdd7SwaWEnZ-52" value="版本流程" style="text;html=1;align=center;verticalAlign=middle;resizable=0;points=[];autosize=1;strokeColor=none;" parent="WIyWlLk6GJQsqaUBKTNV-1" vertex="1">
          <mxGeometry x="630" y="670" width="60" height="20" as="geometry" />
        </mxCell>
        <mxCell id="su2sXkNSjJdd7SwaWEnZ-53" value="..." style="text;html=1;align=center;verticalAlign=middle;resizable=0;points=[];autosize=1;strokeColor=none;" parent="WIyWlLk6GJQsqaUBKTNV-1" vertex="1">
          <mxGeometry x="535" y="670" width="30" height="20" as="geometry" />
        </mxCell>
        <mxCell id="tsAB0bo4_gEpebKhtESv-0" value="已当前运行版本为模板创建；若当前配置下已存在未上线的版本时，提示应先操作该未上线的版本" style="shape=callout;whiteSpace=wrap;html=1;perimeter=calloutPerimeter;base=19;size=30;position=0.23;position2=0.18;" parent="WIyWlLk6GJQsqaUBKTNV-1" vertex="1">
          <mxGeometry x="340" y="530" width="230" height="80" as="geometry" />
        </mxCell>
        <mxCell id="zinLOxnvtQ0VyV_YqizE-3" style="edgeStyle=orthogonalEdgeStyle;rounded=0;orthogonalLoop=1;jettySize=auto;html=1;exitX=0;exitY=0.5;exitDx=0;exitDy=0;entryX=1;entryY=0.5;entryDx=0;entryDy=0;" parent="WIyWlLk6GJQsqaUBKTNV-1" source="zinLOxnvtQ0VyV_YqizE-0" target="su2sXkNSjJdd7SwaWEnZ-30" edge="1">
          <mxGeometry relative="1" as="geometry" />
        </mxCell>
        <mxCell id="zinLOxnvtQ0VyV_YqizE-0" value="已过期" style="whiteSpace=wrap;html=1;fontSize=12;glass=0;strokeWidth=1;shadow=0;fillColor=#dae8fc;strokeColor=#6c8ebf;" parent="WIyWlLk6GJQsqaUBKTNV-1" vertex="1">
          <mxGeometry x="340" y="815" width="120" height="40" as="geometry" />
        </mxCell>
        <mxCell id="zinLOxnvtQ0VyV_YqizE-2" value="定时脚本" style="text;html=1;align=center;verticalAlign=middle;resizable=0;points=[];autosize=1;strokeColor=none;" parent="WIyWlLk6GJQsqaUBKTNV-1" vertex="1">
          <mxGeometry x="310" y="710" width="60" height="20" as="geometry" />
        </mxCell>
        <mxCell id="zinLOxnvtQ0VyV_YqizE-4" value="下线" style="text;html=1;align=center;verticalAlign=middle;resizable=0;points=[];autosize=1;strokeColor=none;" parent="WIyWlLk6GJQsqaUBKTNV-1" vertex="1">
          <mxGeometry x="290" y="810" width="40" height="20" as="geometry" />
        </mxCell>
      </root>
    </mxGraphModel>
  </diagram>
  <diagram name="Page-2" id="0kToEJCxtbLQNhaikr8i">
    <mxGraphModel dx="1426" dy="737" grid="1" gridSize="10" guides="1" tooltips="1" connect="1" arrows="1" fold="1" page="1" pageScale="1" pageWidth="827" pageHeight="1169" math="0" shadow="0">
      <root>
        <mxCell id="XWK_omAB-YZLbS4wlG5D-0" />
        <mxCell id="XWK_omAB-YZLbS4wlG5D-1" parent="XWK_omAB-YZLbS4wlG5D-0" />
        <mxCell id="VapTUN8MKateKCw1E8lb-4" value="" style="edgeStyle=orthogonalEdgeStyle;rounded=0;orthogonalLoop=1;jettySize=auto;html=1;" parent="XWK_omAB-YZLbS4wlG5D-1" source="VapTUN8MKateKCw1E8lb-0" target="VapTUN8MKateKCw1E8lb-3" edge="1">
          <mxGeometry relative="1" as="geometry" />
        </mxCell>
        <mxCell id="VapTUN8MKateKCw1E8lb-0" value="创建版本" style="rounded=0;whiteSpace=wrap;html=1;fillColor=#fff2cc;strokeColor=#d6b656;" parent="XWK_omAB-YZLbS4wlG5D-1" vertex="1">
          <mxGeometry x="230" y="70" width="120" height="50" as="geometry" />
        </mxCell>
        <mxCell id="VapTUN8MKateKCw1E8lb-6" value="" style="edgeStyle=orthogonalEdgeStyle;rounded=0;orthogonalLoop=1;jettySize=auto;html=1;" parent="XWK_omAB-YZLbS4wlG5D-1" source="VapTUN8MKateKCw1E8lb-3" target="VapTUN8MKateKCw1E8lb-5" edge="1">
          <mxGeometry relative="1" as="geometry" />
        </mxCell>
        <mxCell id="VapTUN8MKateKCw1E8lb-8" value="" style="edgeStyle=orthogonalEdgeStyle;rounded=0;orthogonalLoop=1;jettySize=auto;html=1;" parent="XWK_omAB-YZLbS4wlG5D-1" source="VapTUN8MKateKCw1E8lb-3" target="VapTUN8MKateKCw1E8lb-7" edge="1">
          <mxGeometry relative="1" as="geometry" />
        </mxCell>
        <mxCell id="VapTUN8MKateKCw1E8lb-3" value="草稿" style="rounded=0;whiteSpace=wrap;html=1;fillColor=#fff2cc;strokeColor=#d6b656;" parent="XWK_omAB-YZLbS4wlG5D-1" vertex="1">
          <mxGeometry x="230" y="180" width="120" height="50" as="geometry" />
        </mxCell>
        <mxCell id="VapTUN8MKateKCw1E8lb-17" value="" style="edgeStyle=orthogonalEdgeStyle;rounded=0;orthogonalLoop=1;jettySize=auto;html=1;" parent="XWK_omAB-YZLbS4wlG5D-1" source="VapTUN8MKateKCw1E8lb-5" target="VapTUN8MKateKCw1E8lb-16" edge="1">
          <mxGeometry relative="1" as="geometry" />
        </mxCell>
        <mxCell id="VapTUN8MKateKCw1E8lb-18" style="edgeStyle=orthogonalEdgeStyle;rounded=0;orthogonalLoop=1;jettySize=auto;html=1;exitX=0;exitY=0.5;exitDx=0;exitDy=0;entryX=0;entryY=0.5;entryDx=0;entryDy=0;dashed=1;" parent="XWK_omAB-YZLbS4wlG5D-1" source="VapTUN8MKateKCw1E8lb-5" target="VapTUN8MKateKCw1E8lb-3" edge="1">
          <mxGeometry relative="1" as="geometry">
            <Array as="points">
              <mxPoint x="170" y="415" />
              <mxPoint x="170" y="205" />
            </Array>
          </mxGeometry>
        </mxCell>
        <mxCell id="VapTUN8MKateKCw1E8lb-5" value="待上线" style="rounded=0;whiteSpace=wrap;html=1;fillColor=#fff2cc;strokeColor=#d6b656;" parent="XWK_omAB-YZLbS4wlG5D-1" vertex="1">
          <mxGeometry x="230" y="390" width="120" height="50" as="geometry" />
        </mxCell>
        <mxCell id="VapTUN8MKateKCw1E8lb-10" style="edgeStyle=orthogonalEdgeStyle;rounded=0;orthogonalLoop=1;jettySize=auto;html=1;exitX=0.5;exitY=1;exitDx=0;exitDy=0;entryX=1;entryY=0.5;entryDx=0;entryDy=0;" parent="XWK_omAB-YZLbS4wlG5D-1" source="VapTUN8MKateKCw1E8lb-7" target="VapTUN8MKateKCw1E8lb-5" edge="1">
          <mxGeometry relative="1" as="geometry" />
        </mxCell>
        <mxCell id="VapTUN8MKateKCw1E8lb-12" value="" style="edgeStyle=orthogonalEdgeStyle;rounded=0;orthogonalLoop=1;jettySize=auto;html=1;" parent="XWK_omAB-YZLbS4wlG5D-1" source="VapTUN8MKateKCw1E8lb-7" target="VapTUN8MKateKCw1E8lb-11" edge="1">
          <mxGeometry relative="1" as="geometry" />
        </mxCell>
        <mxCell id="VapTUN8MKateKCw1E8lb-19" style="edgeStyle=orthogonalEdgeStyle;rounded=0;orthogonalLoop=1;jettySize=auto;html=1;exitX=0;exitY=0.5;exitDx=0;exitDy=0;entryX=0.75;entryY=1;entryDx=0;entryDy=0;dashed=1;" parent="XWK_omAB-YZLbS4wlG5D-1" source="VapTUN8MKateKCw1E8lb-7" target="VapTUN8MKateKCw1E8lb-3" edge="1">
          <mxGeometry relative="1" as="geometry">
            <Array as="points">
              <mxPoint x="320" y="305" />
            </Array>
          </mxGeometry>
        </mxCell>
        <mxCell id="VapTUN8MKateKCw1E8lb-7" value="待审核" style="rounded=0;whiteSpace=wrap;html=1;fillColor=#fff2cc;strokeColor=#d6b656;" parent="XWK_omAB-YZLbS4wlG5D-1" vertex="1">
          <mxGeometry x="390" y="280" width="120" height="50" as="geometry" />
        </mxCell>
        <mxCell id="VapTUN8MKateKCw1E8lb-13" style="edgeStyle=orthogonalEdgeStyle;rounded=0;orthogonalLoop=1;jettySize=auto;html=1;exitX=0.5;exitY=0;exitDx=0;exitDy=0;entryX=1;entryY=0.25;entryDx=0;entryDy=0;dashed=1;" parent="XWK_omAB-YZLbS4wlG5D-1" source="VapTUN8MKateKCw1E8lb-11" target="VapTUN8MKateKCw1E8lb-3" edge="1">
          <mxGeometry relative="1" as="geometry" />
        </mxCell>
        <mxCell id="VapTUN8MKateKCw1E8lb-15" value="" style="edgeStyle=orthogonalEdgeStyle;rounded=0;orthogonalLoop=1;jettySize=auto;html=1;fillColor=#e51400;" parent="XWK_omAB-YZLbS4wlG5D-1" source="VapTUN8MKateKCw1E8lb-11" target="VapTUN8MKateKCw1E8lb-14" edge="1">
          <mxGeometry relative="1" as="geometry" />
        </mxCell>
        <mxCell id="VapTUN8MKateKCw1E8lb-11" value="已驳回" style="rounded=0;whiteSpace=wrap;html=1;fillColor=#fff2cc;strokeColor=#d6b656;" parent="XWK_omAB-YZLbS4wlG5D-1" vertex="1">
          <mxGeometry x="590" y="280" width="120" height="50" as="geometry" />
        </mxCell>
        <mxCell id="VapTUN8MKateKCw1E8lb-14" value="已作废" style="rounded=0;whiteSpace=wrap;html=1;fillColor=#f8cecc;strokeColor=#b85450;" parent="XWK_omAB-YZLbS4wlG5D-1" vertex="1">
          <mxGeometry x="590" y="520" width="120" height="50" as="geometry" />
        </mxCell>
        <mxCell id="VapTUN8MKateKCw1E8lb-16" value="已上线" style="rounded=0;whiteSpace=wrap;html=1;fillColor=#f8cecc;strokeColor=#b85450;" parent="XWK_omAB-YZLbS4wlG5D-1" vertex="1">
          <mxGeometry x="230" y="520" width="120" height="50" as="geometry" />
        </mxCell>
        <mxCell id="VapTUN8MKateKCw1E8lb-20" value="保存草稿" style="text;html=1;align=center;verticalAlign=middle;resizable=0;points=[];autosize=1;strokeColor=none;" parent="XWK_omAB-YZLbS4wlG5D-1" vertex="1">
          <mxGeometry x="300" y="140" width="60" height="20" as="geometry" />
        </mxCell>
        <mxCell id="VapTUN8MKateKCw1E8lb-21" value="提交" style="text;html=1;align=center;verticalAlign=middle;resizable=0;points=[];autosize=1;strokeColor=none;" parent="XWK_omAB-YZLbS4wlG5D-1" vertex="1">
          <mxGeometry x="250" y="300" width="40" height="20" as="geometry" />
        </mxCell>
        <mxCell id="VapTUN8MKateKCw1E8lb-22" value="撤回" style="text;html=1;align=center;verticalAlign=middle;resizable=0;points=[];autosize=1;strokeColor=none;" parent="XWK_omAB-YZLbS4wlG5D-1" vertex="1">
          <mxGeometry x="510" y="170" width="40" height="20" as="geometry" />
        </mxCell>
        <mxCell id="VapTUN8MKateKCw1E8lb-23" value="撤回" style="text;html=1;align=center;verticalAlign=middle;resizable=0;points=[];autosize=1;strokeColor=none;" parent="XWK_omAB-YZLbS4wlG5D-1" vertex="1">
          <mxGeometry x="340" y="280" width="40" height="20" as="geometry" />
        </mxCell>
        <mxCell id="VapTUN8MKateKCw1E8lb-24" value="提交审核" style="text;html=1;align=center;verticalAlign=middle;resizable=0;points=[];autosize=1;strokeColor=none;" parent="XWK_omAB-YZLbS4wlG5D-1" vertex="1">
          <mxGeometry x="450" y="230" width="60" height="20" as="geometry" />
        </mxCell>
        <mxCell id="VapTUN8MKateKCw1E8lb-25" value="撤回" style="text;html=1;align=center;verticalAlign=middle;resizable=0;points=[];autosize=1;strokeColor=none;" parent="XWK_omAB-YZLbS4wlG5D-1" vertex="1">
          <mxGeometry x="120" y="300" width="40" height="20" as="geometry" />
        </mxCell>
        <mxCell id="VapTUN8MKateKCw1E8lb-26" value="上线" style="text;html=1;align=center;verticalAlign=middle;resizable=0;points=[];autosize=1;strokeColor=none;" parent="XWK_omAB-YZLbS4wlG5D-1" vertex="1">
          <mxGeometry x="290" y="470" width="40" height="20" as="geometry" />
        </mxCell>
        <mxCell id="52vGmHaNXE-oYkBg1WAr-0" value="审核通过" style="text;html=1;align=center;verticalAlign=middle;resizable=0;points=[];autosize=1;strokeColor=none;" parent="XWK_omAB-YZLbS4wlG5D-1" vertex="1">
          <mxGeometry x="450" y="360" width="60" height="20" as="geometry" />
        </mxCell>
        <mxCell id="52vGmHaNXE-oYkBg1WAr-1" value="审核驳回" style="text;html=1;align=center;verticalAlign=middle;resizable=0;points=[];autosize=1;strokeColor=none;" parent="XWK_omAB-YZLbS4wlG5D-1" vertex="1">
          <mxGeometry x="520" y="280" width="60" height="20" as="geometry" />
        </mxCell>
        <mxCell id="52vGmHaNXE-oYkBg1WAr-2" value="作废" style="text;html=1;align=center;verticalAlign=middle;resizable=0;points=[];autosize=1;strokeColor=none;" parent="XWK_omAB-YZLbS4wlG5D-1" vertex="1">
          <mxGeometry x="650" y="400" width="40" height="20" as="geometry" />
        </mxCell>
        <mxCell id="52vGmHaNXE-oYkBg1WAr-3" value="待确认： 草稿和待审核是否有废弃操作？" style="text;html=1;align=center;verticalAlign=middle;resizable=0;points=[];autosize=1;strokeColor=none;" parent="XWK_omAB-YZLbS4wlG5D-1" vertex="1">
          <mxGeometry x="120" y="670" width="230" height="20" as="geometry" />
        </mxCell>
      </root>
    </mxGraphModel>
  </diagram>
</mxfile>
